<svg width="41" height="41" viewBox="0 0 41 41" fill="none" xmlns="http://www.w3.org/2000/svg">
<path d="M29.5812 0.9984C36.3612 0.9984 40.9012 5.7584 40.9012 12.8384V29.1804C40.9012 36.2404 36.3612 40.9984 29.5812 40.9984H12.2412C5.46118 40.9984 0.901184 36.2404 0.901184 29.1804V12.8384C0.901184 5.7584 5.46118 0.9984 12.2412 0.9984H29.5812ZM26.9212 14.9404C26.2412 14.2584 25.1412 14.2584 24.4412 14.9404L20.9012 18.4984L17.3412 14.9404C16.6412 14.2584 15.5412 14.2584 14.8612 14.9404C14.1812 15.6204 14.1812 16.7404 14.8612 17.4184L18.4212 20.9804L14.8612 24.5204C14.1812 25.2204 14.1812 26.3204 14.8612 26.9984C15.2012 27.3384 15.6612 27.5204 16.1012 27.5204C16.5612 27.5204 17.0012 27.3384 17.3412 26.9984L20.9012 23.4604L24.4612 26.9984C24.8012 27.3604 25.2412 27.5204 25.6812 27.5204C26.1412 27.5204 26.5812 27.3384 26.9212 26.9984C27.6012 26.3204 27.6012 25.2204 26.9212 24.5404L23.3612 20.9804L26.9212 17.4184C27.6012 16.7404 27.6012 15.6204 26.9212 14.9404Z" fill="white"/>
</svg>
